<svg xmlns="http://www.w3.org/2000/svg" xmlns:xlink="http://www.w3.org/1999/xlink" width="500" zoomAndPan="magnify" viewBox="0 0 375 374.999991" height="500" preserveAspectRatio="xMidYMid meet" version="1.0"><defs><g/><clipPath id="ba5ea730e3"><path d="M 105.710938 135 L 199 135 L 199 156 L 105.710938 156 Z M 105.710938 135 " clip-rule="nonzero"/></clipPath><clipPath id="af1a152fa5"><path d="M 122 138 L 244 138 L 244 213.976562 L 122 213.976562 Z M 122 138 " clip-rule="nonzero"/></clipPath><clipPath id="781b0551ed"><path d="M 247 90.976562 L 285.710938 90.976562 L 285.710938 128 L 247 128 Z M 247 90.976562 " clip-rule="nonzero"/></clipPath></defs><path fill="#7126b5" d="M 158.84375 177.984375 C 185.855469 169.320312 210.234375 157.382812 231.480469 141.5625 C 234.679688 139.179688 237.804688 136.714844 240.859375 134.15625 C 246.09375 129.765625 251.117188 125.117188 255.921875 120.191406 C 251.515625 126.574219 246.863281 132.460938 241.988281 137.917969 C 238.9375 141.335938 235.800781 144.585938 232.585938 147.683594 C 211.050781 168.4375 186.070312 182.359375 160.167969 194.460938 L 158.84375 177.988281 Z M 158.84375 177.984375 " fill-opacity="1" fill-rule="evenodd"/><g clip-path="url(#ba5ea730e3)"><path fill="#a06ece" d="M 198.925781 143.929688 C 176.863281 153.566406 155.042969 156.898438 133.445312 154.359375 C 129.742188 153.925781 126.050781 153.320312 122.359375 152.542969 C 116.808594 151.375 111.273438 149.820312 105.753906 147.886719 L 118.195312 135.074219 C 120.296875 135.898438 122.402344 136.679688 124.515625 137.414062 C 128.03125 138.640625 131.558594 139.742188 135.097656 140.71875 C 155.929688 146.464844 177.183594 147.808594 198.925781 143.929688 Z M 198.925781 143.929688 " fill-opacity="1" fill-rule="evenodd"/></g><g clip-path="url(#af1a152fa5)"><path fill="#7126b5" d="M 138.617188 175.429688 C 139.832031 177.859375 141.261719 180.222656 142.914062 182.492188 C 146.019531 186.757812 149.683594 190.382812 153.730469 193.34375 C 170.601562 205.949219 194.597656 206.347656 212.378906 193.5 C 224.996094 184.386719 232.046875 170.472656 232.839844 156.09375 C 234.234375 154.824219 235.617188 153.53125 236.988281 152.214844 C 239.210938 150.070312 241.382812 147.871094 243.5 145.621094 C 246.25 166.890625 237.542969 188.960938 218.886719 202.4375 C 191.703125 222.074219 153.664062 216.046875 133.941406 188.972656 C 127.296875 179.847656 123.578125 169.496094 122.609375 159.027344 C 125.949219 159.691406 129.320312 160.222656 132.703125 160.621094 C 133.128906 160.671875 133.554688 160.71875 133.980469 160.761719 C 146.992188 162.15625 159.765625 161.484375 172.246094 158.988281 C 189.980469 155.792969 207.472656 149.082031 224.703125 138.695312 C 198.609375 157.394531 169.960938 169.527344 138.617188 175.429688 Z M 138.617188 175.429688 " fill-opacity="1" fill-rule="evenodd"/></g><path fill="#a06ece" d="M 223.4375 124.328125 C 207.308594 102.1875 176.203125 97.257812 153.972656 113.316406 C 146.160156 118.957031 140.484375 126.441406 137.105469 134.734375 C 137 134.707031 136.894531 134.675781 136.789062 134.648438 C 133.359375 133.703125 129.964844 132.636719 126.605469 131.46875 C 126.566406 131.453125 126.53125 131.441406 126.496094 131.429688 C 130.582031 120.945312 137.644531 111.472656 147.464844 104.382812 C 174.648438 84.742188 212.6875 90.773438 232.410156 117.847656 C 234.765625 121.085938 236.757812 124.476562 238.386719 127.976562 C 237.855469 128.429688 237.320312 128.882812 236.785156 129.332031 C 234.382812 131.34375 231.933594 133.300781 229.441406 135.195312 C 227.941406 131.417969 225.945312 127.765625 223.4375 124.328125 Z M 223.4375 124.328125 " fill-opacity="1" fill-rule="evenodd"/><g clip-path="url(#781b0551ed)"><path fill="#7126b5" d="M 248.457031 109.828125 L 248.382812 109.90625 C 248.214844 110.074219 248.195312 110.039062 248.03125 110.265625 L 247.980469 110.335938 C 247.695312 110.703125 247.835938 111.394531 248.039062 111.707031 C 248.28125 112.070312 248.6875 112.1875 249.164062 112.40625 C 249.988281 112.785156 250.839844 113.175781 251.667969 113.53125 C 253.324219 114.238281 255.011719 115.09375 256.675781 115.761719 C 256.851562 115.6875 259.066406 113.871094 259.476562 113.53125 C 259.664062 113.375 259.839844 113.265625 260.035156 113.113281 C 260.417969 112.8125 260.730469 112.527344 261.125 112.21875 L 274.398438 101.542969 L 274.710938 101.269531 C 274.777344 101.207031 274.71875 101.253906 274.796875 101.203125 L 279.136719 97.746094 C 279.160156 97.554688 279.074219 97.667969 279.425781 97.507812 C 279.34375 97.6875 279.230469 97.777344 279.121094 97.910156 L 278.773438 98.296875 C 278.558594 98.4375 277.886719 99.265625 277.695312 99.488281 L 277.515625 99.746094 C 277.4375 99.820312 277.460938 99.800781 277.402344 99.871094 L 276.945312 100.355469 C 276.941406 100.347656 276.925781 100.371094 276.917969 100.378906 C 276.394531 100.972656 275.851562 101.617188 275.324219 102.210938 C 275.054688 102.511719 274.78125 102.832031 274.519531 103.128906 C 274.292969 103.390625 273.914062 103.757812 273.746094 104.015625 C 273.648438 104.214844 273.714844 104.066406 273.570312 104.226562 L 273.042969 104.789062 L 269.875 108.425781 L 269.09375 109.320312 L 269.082031 109.300781 C 269.042969 109.371094 269.03125 109.410156 268.988281 109.46875 L 268.300781 110.191406 C 267.4375 111.152344 266.648438 112.097656 265.796875 113.0625 C 264.953125 114.023438 264.089844 114.960938 263.273438 115.917969 C 263.140625 116.160156 262.699219 116.65625 262.492188 116.8125 C 262.230469 117.097656 262.015625 117.390625 261.75 117.675781 C 260.59375 118.902344 260.859375 118.546875 260.8125 120.03125 L 260.648438 124.894531 C 260.632812 125.351562 260.542969 126.027344 260.699219 126.414062 C 260.832031 126.746094 261.171875 127.078125 261.542969 127.199219 C 262.609375 127.542969 263.136719 126.535156 263.566406 126.085938 C 263.839844 125.796875 267.949219 121.167969 268.117188 120.910156 C 268.414062 120.964844 269.082031 121.308594 269.402344 121.453125 L 273.082031 123.09375 C 273.90625 123.449219 274.71875 123.832031 275.523438 124.179688 C 276.070312 124.417969 277.503906 125.183594 278.082031 125.144531 C 279.273438 125.058594 279.308594 123.867188 279.476562 123.03125 L 281.273438 114.164062 C 282.078125 110.191406 282.878906 106.273438 283.667969 102.316406 L 285.464844 93.4375 C 285.550781 93.007812 285.753906 92.355469 285.617188 91.917969 C 285.507812 91.554688 285.167969 91.179688 284.773438 91.042969 C 284.226562 90.859375 283.757812 91.113281 283.402344 91.296875 L 277.753906 94.292969 C 277.003906 94.707031 276.265625 95.113281 275.5 95.496094 C 274.039062 96.222656 272.476562 97.125 270.996094 97.890625 C 270.273438 98.261719 269.453125 98.671875 268.738281 99.082031 L 265.34375 100.886719 C 264.226562 101.441406 263.046875 102.144531 261.976562 102.667969 C 261.601562 102.851562 261.21875 103.0625 260.832031 103.269531 L 255.210938 106.25 C 253.828125 106.992188 252.058594 107.96875 250.703125 108.644531 C 249.945312 109.019531 249.195312 109.503906 248.453125 109.828125 Z M 248.457031 109.828125 " fill-opacity="1" fill-rule="evenodd"/></g><path fill="#7126b5" d="M 279.140625 97.746094 C 279.113281 97.894531 279.085938 97.910156 278.988281 98.003906 C 278.851562 98.140625 278.863281 98.144531 278.777344 98.296875 L 279.121094 97.910156 C 279.234375 97.773438 279.347656 97.6875 279.429688 97.503906 C 279.078125 97.667969 279.164062 97.550781 279.140625 97.746094 Z M 279.140625 97.746094 " fill-opacity="1" fill-rule="evenodd"/><path fill="#7126b5" d="M 262.496094 116.8125 C 262.703125 116.65625 263.140625 116.160156 263.273438 115.917969 L 262.675781 116.59375 C 262.550781 116.734375 262.585938 116.648438 262.496094 116.8125 Z M 262.496094 116.8125 " fill-opacity="1" fill-rule="evenodd"/><path fill="#7126b5" d="M 276.917969 100.378906 C 276.929688 100.371094 276.945312 100.347656 276.949219 100.355469 L 277.40625 99.871094 C 277.464844 99.800781 277.441406 99.820312 277.515625 99.746094 L 277.699219 99.488281 C 277.613281 99.546875 277.6875 99.460938 277.589844 99.585938 L 277.117188 100.140625 C 276.996094 100.285156 277.007812 100.214844 276.917969 100.378906 Z M 276.917969 100.378906 " fill-opacity="1" fill-rule="evenodd"/><path fill="#7126b5" d="M 268.304688 110.191406 L 268.992188 109.46875 C 269.035156 109.410156 269.046875 109.371094 269.085938 109.304688 C 269.003906 109.359375 269.050781 109.308594 268.980469 109.402344 L 268.308594 110.191406 Z M 268.304688 110.191406 " fill-opacity="1" fill-rule="evenodd"/><path fill="#7126b5" d="M 269.09375 109.324219 L 269.878906 108.425781 C 269.667969 108.582031 269.21875 109.109375 269.09375 109.324219 Z M 269.09375 109.324219 " fill-opacity="1" fill-rule="evenodd"/><path fill="#7126b5" d="M 247.984375 110.335938 L 248.035156 110.265625 C 248.199219 110.035156 248.214844 110.074219 248.382812 109.90625 L 248.457031 109.824219 C 248.34375 109.878906 248.433594 109.820312 248.304688 109.921875 C 248.222656 109.984375 248.25 109.957031 248.179688 110.027344 C 248.101562 110.105469 248.042969 110.183594 247.984375 110.335938 Z M 247.984375 110.335938 " fill-opacity="1" fill-rule="evenodd"/><path fill="#7126b5" d="M 273.046875 104.789062 L 273.574219 104.226562 C 273.714844 104.066406 273.652344 104.214844 273.75 104.015625 L 273.046875 104.792969 Z M 273.046875 104.789062 " fill-opacity="1" fill-rule="evenodd"/><path fill="#7126b5" d="M 274.402344 101.539062 L 274.800781 101.199219 C 274.722656 101.253906 274.78125 101.203125 274.714844 101.265625 Z M 274.402344 101.539062 " fill-opacity="1" fill-rule="evenodd"/><g fill="#915cc2" fill-opacity="1"><g transform="translate(112.611325, 264.517)"><g><path d="M 17.46875 -33.671875 L 25.859375 -33.671875 L 25.859375 0 L 17.984375 0 L 10.484375 -17.671875 L 10.484375 0 L 2.09375 0 L 2.09375 -33.671875 L 9.96875 -33.671875 L 17.46875 -15.6875 Z M 17.46875 -33.671875 "/></g></g></g><g fill="#915cc2" fill-opacity="1"><g transform="translate(140.562636, 264.517)"><g><path d="M 24.703125 -22.140625 L 15.53125 -22.140625 L 15.53125 -26.484375 C 15.53125 -27.253906 15.09375 -27.640625 14.21875 -27.640625 L 12.328125 -27.640625 C 11.453125 -27.640625 11.015625 -27.253906 11.015625 -26.484375 L 11.015625 -7.1875 C 11.015625 -6.414062 11.453125 -6.03125 12.328125 -6.03125 L 14.21875 -6.03125 C 15.09375 -6.03125 15.53125 -6.414062 15.53125 -7.1875 L 15.53125 -12.796875 L 12.90625 -12.796875 L 12.90625 -18.625 L 24.703125 -18.625 L 24.703125 -6.5 C 24.703125 -2.164062 22.132812 0 17 0 L 9.546875 0 C 4.398438 0 1.828125 -2.164062 1.828125 -6.5 L 1.828125 -27.171875 C 1.828125 -31.503906 4.398438 -33.671875 9.546875 -33.671875 L 17 -33.671875 C 22.132812 -33.671875 24.703125 -31.503906 24.703125 -27.171875 Z M 24.703125 -22.140625 "/></g></g></g><g fill="#915cc2" fill-opacity="1"><g transform="translate(166.83582, 264.517)"><g><path d="M 11.28125 -6.5625 L 22.765625 -6.5625 L 22.765625 0 L 2.09375 0 L 2.09375 -33.671875 L 22.296875 -33.671875 L 22.296875 -27.125 L 11.28125 -27.125 L 11.28125 -20.25 L 20.765625 -20.25 L 20.765625 -13.6875 L 11.28125 -13.6875 Z M 11.28125 -6.5625 "/></g></g></g><g fill="#915cc2" fill-opacity="1"><g transform="translate(190.382036, 264.517)"><g><path d="M 22.296875 -27.125 L 11.28125 -27.125 L 11.28125 -18.9375 L 20.828125 -18.9375 L 20.828125 -12.90625 L 11.28125 -12.90625 L 11.28125 0 L 2.09375 0 L 2.09375 -33.671875 L 22.296875 -33.671875 Z M 22.296875 -27.125 "/></g></g></g><g fill="#915cc2" fill-opacity="1"><g transform="translate(213.456288, 264.517)"><g><path d="M 11.28125 -6.5625 L 21.71875 -6.5625 L 21.71875 0 L 2.09375 0 L 2.09375 -33.671875 L 11.28125 -33.671875 Z M 11.28125 -6.5625 "/></g></g></g><g fill="#915cc2" fill-opacity="1"><g transform="translate(235.167057, 264.517)"><g><path d="M 18.46875 0 L 9.28125 0 L 9.28125 -10.90625 L 0 -33.671875 L 9.390625 -33.671875 L 13.796875 -19.453125 L 17.890625 -33.671875 L 27.21875 -33.671875 L 18.46875 -11.015625 Z M 18.46875 0 "/></g></g></g></svg>