<svg width="53" height="52" viewBox="0 0 53 52" fill="none" xmlns="http://www.w3.org/2000/svg">
<path fill-rule="evenodd" clip-rule="evenodd" d="M15.5942 26.2088C23.5176 23.6673 30.6687 20.1656 36.9009 15.525C37.8394 14.826 38.756 14.103 39.6521 13.3525C41.1875 12.0646 42.661 10.701 44.0704 9.25615C42.7779 11.1284 41.4132 12.8552 39.9832 14.4559C39.0883 15.4585 38.1682 16.4119 37.2252 17.3205C30.9082 23.4083 23.5806 27.4921 15.9826 31.0419L15.5942 26.2099V26.2088Z" fill="#7126B5"/>
<mask id="mask0_1_52" style="mask-type:luminance" maskUnits="userSpaceOnUse" x="0" y="13" width="28" height="7">
<path d="M0.00852966 13.6H27.3733V19.76H0.00852966V13.6Z" fill="white"/>
</mask>
<g mask="url(#mask0_1_52)">
<path fill-rule="evenodd" clip-rule="evenodd" d="M27.3516 16.2194C20.8799 19.0462 14.4793 20.0236 8.14395 19.2788C7.0577 19.1516 5.97488 18.974 4.89207 18.7459C3.26384 18.4033 1.6402 17.9473 0.0211334 17.3801L3.67061 13.6218C4.28707 13.8636 4.90468 14.0927 5.52457 14.3081C6.55582 14.6679 7.59051 14.9911 8.62863 15.2775C14.7394 16.963 20.9738 17.3572 27.3516 16.2194Z" fill="#A06ECE"/>
</g>
<mask id="mask1_1_52" style="mask-type:luminance" maskUnits="userSpaceOnUse" x="4" y="14" width="37" height="23">
<path d="M4.78665 14.48H40.5733V36.7665H4.78665V14.48Z" fill="white"/>
</mask>
<g mask="url(#mask1_1_52)">
<path fill-rule="evenodd" clip-rule="evenodd" d="M9.66103 25.4594C10.0174 26.1721 10.4368 26.8653 10.9215 27.531C11.8324 28.7823 12.9072 29.8456 14.0943 30.7142C19.0431 34.4118 26.082 34.5286 31.2978 30.76C34.9988 28.0868 37.0671 24.0053 37.2997 19.7875C37.7087 19.4151 38.1144 19.0358 38.5166 18.6497C39.1685 18.0206 39.8056 17.3755 40.4267 16.7155C41.2333 22.9546 38.6793 29.4285 33.2068 33.3817C25.2329 39.1418 14.0748 37.3738 8.28947 29.432C6.34041 26.7553 5.24958 23.7189 4.96541 20.648C5.9451 20.8428 6.93395 20.9986 7.92624 21.1155C8.05114 21.1304 8.17603 21.1442 8.30093 21.1568C12.1177 21.5658 15.8646 21.3688 19.5255 20.6366C24.7276 19.6993 29.8586 17.7307 34.9129 14.684C27.2587 20.1691 18.8552 23.728 9.66103 25.4594Z" fill="#7126B5"/>
</g>
<path fill-rule="evenodd" clip-rule="evenodd" d="M34.5417 10.4696C29.8105 3.97501 20.6862 2.52897 14.1653 7.23949C11.8736 8.89407 10.2087 11.0895 9.2176 13.5221C9.18666 13.5141 9.15572 13.5049 9.12479 13.4969C8.11874 13.2196 7.12301 12.9068 6.1376 12.5642C6.12614 12.5596 6.11583 12.5562 6.10551 12.5527C7.30406 9.4773 9.37572 6.69865 12.2563 4.61897C20.2302 -1.14228 31.3883 0.626883 37.1736 8.56865C37.8646 9.51855 38.449 10.5131 38.9268 11.5398C38.7709 11.6727 38.614 11.8056 38.457 11.9374C37.7523 12.5275 37.0338 13.1016 36.3028 13.6573C35.8628 12.5493 35.2773 11.4779 34.5417 10.4696Z" fill="#A06ECE"/>
<mask id="mask2_1_52" style="mask-type:luminance" maskUnits="userSpaceOnUse" x="41" y="0" width="12" height="12">
<path d="M41.4533 0.686462H52.8085V11.5467H41.4533V0.686462Z" fill="white"/>
</mask>
<g mask="url(#mask2_1_52)">
<path fill-rule="evenodd" clip-rule="evenodd" d="M41.8807 6.21625L41.859 6.23916C41.8097 6.28844 41.804 6.27812 41.7558 6.34458L41.7409 6.36521C41.6573 6.47291 41.6986 6.67573 41.7581 6.76739C41.8292 6.87396 41.9483 6.90833 42.0881 6.9725C42.3299 7.08364 42.5797 7.19823 42.8226 7.3025C43.3084 7.50989 43.8034 7.76083 44.2916 7.95677C44.3431 7.935 44.9928 7.40219 45.1131 7.3025C45.1681 7.25666 45.2197 7.22458 45.277 7.17989C45.3893 7.09166 45.4809 7.00802 45.5967 6.9175L49.4902 3.78594L49.5819 3.70573C49.6014 3.68739 49.5842 3.70114 49.6071 3.68625L50.8801 2.67219C50.887 2.61604 50.8618 2.64927 50.9649 2.60229C50.9408 2.655 50.9076 2.68135 50.8755 2.72031L50.7736 2.83375C50.7105 2.875 50.5134 3.11791 50.4573 3.18323L50.4046 3.25885C50.3817 3.28062 50.3886 3.27489 50.3714 3.29552L50.2373 3.4376C50.2362 3.43531 50.2316 3.44219 50.2293 3.44448C50.0757 3.61864 49.9165 3.80771 49.7618 3.98187C49.6827 4.0701 49.6025 4.16406 49.5257 4.25114C49.4593 4.32791 49.3481 4.43562 49.2989 4.51125C49.2702 4.56969 49.2897 4.52614 49.2473 4.57312L49.0926 4.73812L48.1633 5.80489L47.9342 6.06729L47.9307 6.06156C47.9193 6.08219 47.9158 6.09364 47.9032 6.11083L47.7016 6.32281C47.4483 6.60469 47.2169 6.88198 46.9671 7.165C46.7196 7.44687 46.4664 7.72187 46.2269 8.0026C46.1879 8.07364 46.0584 8.21916 45.9977 8.265C45.9209 8.34864 45.8579 8.43458 45.78 8.51823C45.4408 8.87802 45.5188 8.77375 45.505 9.20916L45.4569 10.6357C45.4523 10.7698 45.4259 10.968 45.4718 11.0815C45.5107 11.1789 45.6104 11.2762 45.7193 11.3118C46.0321 11.4126 46.1868 11.117 46.3128 10.9852C46.393 10.9004 47.5984 9.5426 47.6477 9.46698C47.7348 9.48302 47.9307 9.58385 48.0247 9.62625L49.1041 10.1075C49.3458 10.2118 49.5842 10.3241 49.8202 10.426C49.9806 10.4959 50.4012 10.7205 50.5707 10.7091C50.9202 10.6839 50.9305 10.3344 50.9798 10.0892L51.5069 7.48812C51.7429 6.32281 51.9778 5.17354 52.2093 4.01281L52.7364 1.40833C52.7616 1.28229 52.8212 1.09094 52.7811 0.962602C52.749 0.856039 52.6493 0.746039 52.5336 0.705935C52.3731 0.652081 52.2356 0.72656 52.1314 0.780414L50.4745 1.65927C50.2545 1.78073 50.0379 1.89989 49.8133 2.01219C49.3848 2.22531 48.9265 2.49 48.4922 2.71458C48.2802 2.82344 48.0396 2.94375 47.8299 3.06406L46.8342 3.59344C46.5065 3.75614 46.1604 3.96239 45.8465 4.11594C45.7365 4.16979 45.6242 4.23166 45.5107 4.29239L43.8619 5.16666C43.4563 5.38437 42.9372 5.67083 42.5396 5.86906C42.3173 5.97906 42.0973 6.12114 41.8796 6.21625H41.8807Z" fill="#7126B5"/>
</g>
<path fill-rule="evenodd" clip-rule="evenodd" d="M50.8813 2.67219C50.8732 2.71573 50.8652 2.72032 50.8366 2.74782C50.7965 2.78792 50.7999 2.78907 50.7747 2.83375L50.8755 2.72032C50.9088 2.68021 50.942 2.655 50.966 2.60115C50.8629 2.64928 50.8881 2.6149 50.8813 2.67219Z" fill="#7126B5"/>
<path fill-rule="evenodd" clip-rule="evenodd" d="M45.9989 8.26501C46.0596 8.21917 46.1879 8.07365 46.2269 8.00261L46.0516 8.20084C46.0149 8.24209 46.0252 8.21688 45.9989 8.26501Z" fill="#7126B5"/>
<path fill-rule="evenodd" clip-rule="evenodd" d="M50.2293 3.44448C50.2327 3.44219 50.2373 3.43531 50.2384 3.4376L50.3725 3.29552C50.3897 3.27489 50.3828 3.28062 50.4046 3.25885L50.4584 3.18323C50.4332 3.20042 50.455 3.17521 50.4263 3.21187L50.2877 3.37458C50.2522 3.41698 50.2556 3.39635 50.2293 3.44448Z" fill="#7126B5"/>
<path fill-rule="evenodd" clip-rule="evenodd" d="M47.7027 6.32282L47.9044 6.11084C47.917 6.09365 47.9204 6.08219 47.9319 6.06271C47.9078 6.07876 47.9216 6.06386 47.9009 6.09136L47.7038 6.32282H47.7027Z" fill="#7126B5"/>
<path fill-rule="evenodd" clip-rule="evenodd" d="M47.9342 6.06844L48.1645 5.8049C48.1026 5.85073 47.9708 6.00542 47.9342 6.06844Z" fill="#7126B5"/>
<path fill-rule="evenodd" clip-rule="evenodd" d="M41.7421 6.36521L41.757 6.34458C41.8051 6.27698 41.8097 6.28844 41.859 6.23917L41.8807 6.2151C41.8475 6.23114 41.8739 6.21396 41.836 6.24375C41.812 6.26208 41.82 6.25406 41.7994 6.27469C41.7765 6.2976 41.7593 6.32052 41.7421 6.36521Z" fill="#7126B5"/>
<path fill-rule="evenodd" clip-rule="evenodd" d="M49.0938 4.73812L49.2484 4.57312C49.2897 4.52614 49.2714 4.56968 49.3 4.51125L49.0938 4.73927V4.73812Z" fill="#7126B5"/>
<path fill-rule="evenodd" clip-rule="evenodd" d="M49.4913 3.78479L49.6082 3.6851C49.5853 3.70115 49.6025 3.68625 49.583 3.70458L49.4913 3.78479Z" fill="#7126B5"/>
<path d="M7.15682 41.7146H9.61807V51.5917H7.30807L5.10807 46.4079V51.5917H2.64682V41.7146H4.95682L7.15682 46.99V41.7146Z" fill="#915CC2"/>
<path d="M17.4779 45.0971H14.7875V43.8229C14.7875 43.5972 14.6592 43.4837 14.4025 43.4837H13.8479C13.5913 43.4837 13.4629 43.5972 13.4629 43.8229V49.4833C13.4629 49.7102 13.5913 49.8225 13.8479 49.8225H14.4025C14.6592 49.8225 14.7875 49.7102 14.7875 49.4833V47.8379H14.0175V46.1283H17.4779V49.685C17.4779 50.9569 16.724 51.5917 15.2184 51.5917H13.0321C11.5219 51.5917 10.7679 50.9569 10.7679 49.685V43.6212C10.7679 42.3505 11.5219 41.7146 13.0321 41.7146H15.2184C16.724 41.7146 17.4779 42.3505 17.4779 43.6212V45.0971Z" fill="#915CC2"/>
<path d="M21.2477 49.6667H24.6164V51.5917H18.5527V41.7146H24.4789V43.635H21.2477V45.6517H24.0297V47.5767H21.2477V49.6667Z" fill="#915CC2"/>
<path d="M31.3858 43.635H28.1545V46.0367H30.955V47.8058H28.1545V51.5917H25.4595V41.7146H31.3858V43.635Z" fill="#915CC2"/>
<path d="M34.923 49.6667H37.9847V51.5917H32.228V41.7146H34.923V49.6667Z" fill="#915CC2"/>
<path d="M43.3998 51.5917H40.7048V48.3925L37.9823 41.7146H40.7369L42.0294 45.8854L43.2302 41.7146H45.9665L43.3998 48.3604V51.5917Z" fill="#915CC2"/>
</svg>
